<svg xmlns:xlink="http://www.w3.org/1999/xlink" version="1.1" class="highcharts-root" style="font-family: -apple-system, BlinkMacSystemFont, 'Segoe UI', Roboto, sans-serif; font-size: 1rem;" xmlns="http://www.w3.org/2000/svg" width="600" height="500" viewBox="0 0 600 500" aria-label="Interactive chart" aria-hidden="false"><desc aria-hidden="true">Created with Highcharts 12.5.0</desc><defs aria-hidden="true"><filter id="highcharts-drop-shadow-4"><feDropShadow dx="1" dy="1" flood-color="#000000" flood-opacity="0.75" stdDeviation="2.5"></feDropShadow></filter><clipPath id="highcharts-d1tvqbb-143-"><rect x="0" y="0" width="490" height="338" fill="none"></rect></clipPath><clipPath id="highcharts-d1tvqbb-154-"><rect x="100" y="50" width="490" height="338" fill="none"></rect></clipPath></defs><rect fill="#ffffff" class="highcharts-background" filter="none" x="0" y="0" width="600" height="500" rx="0" ry="0" aria-hidden="true"></rect><rect fill="none" class="highcharts-plot-background" x="100" y="50" width="490" height="338" filter="none" aria-hidden="true"></rect><g class="highcharts-pane-group" data-z-index="0" aria-hidden="true"></g><g class="highcharts-grid highcharts-xaxis-grid" data-z-index="1" aria-hidden="true"><path fill="none" stroke="#e6e6e6" stroke-width="0" stroke-dasharray="none" data-z-index="1" class="highcharts-grid-line" d="M 198.5 50 L 198.5 388" opacity="1"></path><path fill="none" stroke="#e6e6e6" stroke-width="0" stroke-dasharray="none" data-z-index="1" class="highcharts-grid-line" d="M 296.5 50 L 296.5 388" opacity="1"></path><path fill="none" stroke="#e6e6e6" stroke-width="0" stroke-dasharray="none" data-z-index="1" class="highcharts-grid-line" d="M 394.5 50 L 394.5 388" opacity="1"></path><path fill="none" stroke="#e6e6e6" stroke-width="0" stroke-dasharray="none" data-z-index="1" class="highcharts-grid-line" d="M 492.5 50 L 492.5 388" opacity="1"></path><path fill="none" stroke="#e6e6e6" stroke-width="0" stroke-dasharray="none" data-z-index="1" class="highcharts-grid-line" d="M 590.5 50 L 590.5 388" opacity="1"></path><path fill="none" stroke="#e6e6e6" stroke-width="0" stroke-dasharray="none" data-z-index="1" class="highcharts-grid-line" d="M 100.5 50 L 100.5 388" opacity="1"></path></g><g class="highcharts-grid highcharts-yaxis-grid" data-z-index="1" aria-hidden="true"><path fill="none" stroke="#e6e6e6" stroke-width="1" stroke-dasharray="none" data-z-index="1" class="highcharts-grid-line" d="M 100 388.5 L 590 388.5" opacity="1"></path><path fill="none" stroke="#e6e6e6" stroke-width="1" stroke-dasharray="none" data-z-index="1" class="highcharts-grid-line" d="M 100 303.5 L 590 303.5" opacity="1"></path><path fill="none" stroke="#e6e6e6" stroke-width="1" stroke-dasharray="none" data-z-index="1" class="highcharts-grid-line" d="M 100 219.5 L 590 219.5" opacity="1"></path><path fill="none" stroke="#e6e6e6" stroke-width="1" stroke-dasharray="none" data-z-index="1" class="highcharts-grid-line" d="M 100 134.5 L 590 134.5" opacity="1"></path><path fill="none" stroke="#e6e6e6" stroke-width="1" stroke-dasharray="none" data-z-index="1" class="highcharts-grid-line" d="M 100 50.5 L 590 50.5" opacity="1"></path></g><rect fill="none" class="highcharts-plot-border" data-z-index="1" stroke="#cccccc" stroke-width="0" x="100" y="50" width="490" height="338" aria-hidden="true"></rect><g class="highcharts-axis highcharts-xaxis" data-z-index="2" aria-hidden="true"><text x="345" data-z-index="7" text-anchor="middle" transform="translate(0,0)" class="highcharts-axis-title" style="font-size: 0.8em; fill: rgb(102, 102, 102);" y="437.3333339691162">Horizon</text><path fill="none" class="highcharts-axis-line" stroke="#333333" stroke-width="1" data-z-index="7" d="M 100 388.5 L 590 388.5"></path></g><g class="highcharts-axis highcharts-yaxis" data-z-index="2" aria-hidden="true"><text x="26.21879005432129" data-z-index="7" text-anchor="middle" transform="translate(0,0) rotate(270 26.21879005432129 219)" class="highcharts-axis-title" style="font-size: 0.8em; fill: rgb(102, 102, 102);" y="219">ROI (2023$)</text><path fill="none" class="highcharts-axis-line" stroke="#333333" stroke-width="0" data-z-index="7" d="M 100 50 L 100 388"></path></g><g class="highcharts-series-group" data-z-index="3" filter="none" aria-hidden="false"><g class="highcharts-series highcharts-series-0 highcharts-column-series" data-z-index="0.1" opacity="1" transform="translate(100,50) scale(1 1)" clip-path="url(#highcharts-d1tvqbb-143-)" aria-hidden="false" role="region" tabindex="-1" aria-label="Certificates, bar series 1 of 3 with 5 bars." style="outline: none;"><path fill="#0074CC" d="M 24.5 298.5 L 34.5 298.5 A 3 3 0 0 1 37.5 301.5 L 37.5 338.5 A 0 0 0 0 1 37.5 338.5 L 21.5 338.5 A 0 0 0 0 1 21.5 338.5 L 21.5 301.5 A 3 3 0 0 1 24.5 298.5 Z" stroke="#ffffff" stroke-width="1" opacity="1" filter="none" class="highcharts-point" tabindex="-1" role="img" aria-label="10, 233,000. Certificates." style="outline: none;"></path><path fill="#0074CC" d="M 122.5 267.5 L 132.5 267.5 A 3 3 0 0 1 135.5 270.5 L 135.5 338.5 A 0 0 0 0 1 135.5 338.5 L 119.5 338.5 A 0 0 0 0 1 119.5 338.5 L 119.5 270.5 A 3 3 0 0 1 122.5 267.5 Z" stroke="#ffffff" stroke-width="1" opacity="1" filter="none" class="highcharts-point" tabindex="-1" role="img" aria-label="15, 419,000. Certificates." style="outline: none;"></path><path fill="#0074CC" d="M 220.5 234.5 L 230.5 234.5 A 3 3 0 0 1 233.5 237.5 L 233.5 338.5 A 0 0 0 0 1 233.5 338.5 L 217.5 338.5 A 0 0 0 0 1 217.5 338.5 L 217.5 237.5 A 3 3 0 0 1 220.5 234.5 Z" stroke="#ffffff" stroke-width="1" opacity="1" filter="none" class="highcharts-point" tabindex="-1" role="img" aria-label="20, 610,000. Certificates." style="outline: none;"></path><path fill="#0074CC" d="M 318.5 170.5 L 328.5 170.5 A 3 3 0 0 1 331.5 173.5 L 331.5 338.5 A 0 0 0 0 1 331.5 338.5 L 315.5 338.5 A 0 0 0 0 1 315.5 338.5 L 315.5 173.5 A 3 3 0 0 1 318.5 170.5 Z" stroke="#ffffff" stroke-width="1" opacity="1" filter="none" class="highcharts-point" tabindex="-1" role="img" aria-label="30, 990,000. Certificates." style="outline: none;"></path><path fill="#0074CC" d="M 416.5 106.5 L 426.5 106.5 A 3 3 0 0 1 429.5 109.5 L 429.5 338.5 A 0 0 0 0 1 429.5 338.5 L 413.5 338.5 A 0 0 0 0 1 413.5 338.5 L 413.5 109.5 A 3 3 0 0 1 416.5 106.5 Z" stroke="#ffffff" stroke-width="1" opacity="1" filter="none" class="highcharts-point" tabindex="-1" role="img" aria-label="40, 1,368,000. Certificates." style="outline: none;"></path></g><g class="highcharts-markers highcharts-series-0 highcharts-column-series" data-z-index="0.1" opacity="1" transform="translate(100,50) scale(1 1)" clip-path="none" aria-hidden="true"></g><g class="highcharts-series highcharts-series-1 highcharts-column-series" data-z-index="0.1" opacity="1" transform="translate(100,50) scale(1 1)" clip-path="url(#highcharts-d1tvqbb-143-)" aria-hidden="false" role="region" tabindex="-1" aria-label="Associate's degrees, bar series 2 of 3 with 5 bars." style="outline: none;"><path fill="#266150" d="M 44.5 298.5 L 54.5 298.5 A 3 3 0 0 1 57.5 301.5 L 57.5 338.5 A 0 0 0 0 1 57.5 338.5 L 41.5 338.5 A 0 0 0 0 1 41.5 338.5 L 41.5 301.5 A 3 3 0 0 1 44.5 298.5 Z" stroke="#ffffff" stroke-width="1" opacity="1" filter="none" class="highcharts-point" tabindex="-1" role="img" aria-label="10, 232,000. Associate's degrees." style="outline: none;"></path><path fill="#266150" d="M 142.5 264.5 L 152.5 264.5 A 3 3 0 0 1 155.5 267.5 L 155.5 338.5 A 0 0 0 0 1 155.5 338.5 L 139.5 338.5 A 0 0 0 0 1 139.5 338.5 L 139.5 267.5 A 3 3 0 0 1 142.5 264.5 Z" stroke="#ffffff" stroke-width="1" opacity="1" filter="none" class="highcharts-point" tabindex="-1" role="img" aria-label="15, 432,000. Associate's degrees." style="outline: none;"></path><path fill="#266150" d="M 240.5 231.5 L 250.5 231.5 A 3 3 0 0 1 253.5 234.5 L 253.5 338.5 A 0 0 0 0 1 253.5 338.5 L 237.5 338.5 A 0 0 0 0 1 237.5 338.5 L 237.5 234.5 A 3 3 0 0 1 240.5 231.5 Z" stroke="#ffffff" stroke-width="1" opacity="1" filter="none" class="highcharts-point" tabindex="-1" role="img" aria-label="20, 631,000. Associate's degrees." style="outline: none;"></path><path fill="#266150" d="M 338.5 163.5 L 348.5 163.5 A 3 3 0 0 1 351.5 166.5 L 351.5 338.5 A 0 0 0 0 1 351.5 338.5 L 335.5 338.5 A 0 0 0 0 1 335.5 338.5 L 335.5 166.5 A 3 3 0 0 1 338.5 163.5 Z" stroke="#ffffff" stroke-width="1" opacity="1" filter="none" class="highcharts-point" tabindex="-1" role="img" aria-label="30, 1,030,000. Associate's degrees." style="outline: none;"></path><path fill="#266150" d="M 436.5 96.5 L 446.5 96.5 A 3 3 0 0 1 449.5 99.5 L 449.5 338.5 A 0 0 0 0 1 449.5 338.5 L 433.5 338.5 A 0 0 0 0 1 433.5 338.5 L 433.5 99.5 A 3 3 0 0 1 436.5 96.5 Z" stroke="#ffffff" stroke-width="1" opacity="1" filter="none" class="highcharts-point" tabindex="-1" role="img" aria-label="40, 1,429,000. Associate's degrees." style="outline: none;"></path></g><g class="highcharts-markers highcharts-series-1 highcharts-column-series" data-z-index="0.1" opacity="1" transform="translate(100,50) scale(1 1)" clip-path="none" aria-hidden="true"></g><g class="highcharts-series highcharts-series-2 highcharts-column-series" data-z-index="0.1" opacity="1" transform="translate(100,50) scale(1 1)" clip-path="url(#highcharts-d1tvqbb-143-)" aria-hidden="false" role="region" tabindex="-1" aria-label="Bachelor's degrees, bar series 3 of 3 with 5 bars." style="outline: none;"><path fill="#DE354C" d="M 63.5 308.5 L 73.5 308.5 A 3 3 0 0 1 76.5 311.5 L 76.5 338.5 A 0 0 0 0 1 76.5 338.5 L 60.5 338.5 A 0 0 0 0 1 60.5 338.5 L 60.5 311.5 A 3 3 0 0 1 63.5 308.5 Z" stroke="#ffffff" stroke-width="1" opacity="1" filter="none" class="highcharts-point" tabindex="-1" role="img" aria-label="10, 174,000. Bachelor's degrees." style="outline: none;"></path><path fill="#DE354C" d="M 161.5 262.5 L 171.5 262.5 A 3 3 0 0 1 174.5 265.5 L 174.5 338.5 A 0 0 0 0 1 174.5 338.5 L 158.5 338.5 A 0 0 0 0 1 158.5 338.5 L 158.5 265.5 A 3 3 0 0 1 161.5 262.5 Z" stroke="#ffffff" stroke-width="1" opacity="1" filter="none" class="highcharts-point" tabindex="-1" role="img" aria-label="15, 444,000. Bachelor's degrees." style="outline: none;"></path><path fill="#DE354C" d="M 259.5 217.5 L 269.5 217.5 A 3 3 0 0 1 272.5 220.5 L 272.5 338.5 A 0 0 0 0 1 272.5 338.5 L 256.5 338.5 A 0 0 0 0 1 256.5 338.5 L 256.5 220.5 A 3 3 0 0 1 259.5 217.5 Z" stroke="#ffffff" stroke-width="1" opacity="1" filter="none" class="highcharts-point" tabindex="-1" role="img" aria-label="20, 714,000. Bachelor's degrees." style="outline: none;"></path><path fill="#DE354C" d="M 357.5 125.5 L 367.5 125.5 A 3 3 0 0 1 370.5 128.5 L 370.5 338.5 A 0 0 0 0 1 370.5 338.5 L 354.5 338.5 A 0 0 0 0 1 354.5 338.5 L 354.5 128.5 A 3 3 0 0 1 357.5 125.5 Z" stroke="#ffffff" stroke-width="1" opacity="1" filter="none" class="highcharts-point" tabindex="-1" role="img" aria-label="30, 1,255,000. Bachelor's degrees." style="outline: none;"></path><path fill="#DE354C" d="M 455.5 34.5 L 465.5 34.5 A 3 3 0 0 1 468.5 37.5 L 468.5 338.5 A 0 0 0 0 1 468.5 338.5 L 452.5 338.5 A 0 0 0 0 1 452.5 338.5 L 452.5 37.5 A 3 3 0 0 1 455.5 34.5 Z" stroke="#ffffff" stroke-width="1" opacity="1" filter="none" class="highcharts-point" tabindex="-1" role="img" aria-label="40, 1,794,000. Bachelor's degrees." style="outline: none;"></path></g><g class="highcharts-markers highcharts-series-2 highcharts-column-series" data-z-index="0.1" opacity="1" transform="translate(100,50) scale(1 1)" clip-path="none" aria-hidden="true"></g></g><text x="10" text-anchor="start" class="highcharts-title" data-z-index="4" style="font-size: 1.2em; font-weight: bold; fill: rgb(51, 51, 51);" text-align="left" y="25" transform-origin="10 22" transform="translate(0,0) scale(1 1)" aria-hidden="true">Median ROI for public institutions in 2021–22</text><text x="10" class="highcharts-subtitle" data-z-index="4" text-align="left" y="49" text-anchor="start" transform-origin="10 15" transform="translate(0,0) scale(1 1)" style="font-size: 0.8em; fill: rgb(102, 102, 102);" aria-hidden="true"></text><text x="10" text-anchor="start" class="highcharts-caption" data-z-index="4" style="font-size: 0.8em; fill: rgb(102, 102, 102);" text-align="left" y="497" transform-origin="10 15" transform="translate(0,0) scale(1 1)" aria-hidden="true"></text><g class="highcharts-data-labels highcharts-series-0 highcharts-column-series" data-z-index="6" opacity="1" transform="translate(100,50) scale(1 1)" aria-hidden="true"><g class="highcharts-label highcharts-data-label highcharts-data-label-color-undefined" data-z-index="1" filter="none" transform="translate(7,271)"><text x="22.13332176208496" data-z-index="1" y="17" text-anchor="middle" style="font-size: 0.8rem; font-weight: normal; fill: rgb(0, 0, 0);"><tspan class="highcharts-text-outline" fill="#FFFFFF" stroke="#FFFFFF" stroke-width="2px" stroke-linejoin="round" style="">$233k<tspan x="22.13332176208496" dy="0">​</tspan></tspan>$233k</text></g><g class="highcharts-label highcharts-data-label highcharts-data-label-color-undefined" data-z-index="1" filter="none" transform="translate(105,240)"><text x="22.13332176208496" data-z-index="1" y="17" text-anchor="middle" style="font-size: 0.8rem; font-weight: normal; fill: rgb(0, 0, 0);"><tspan class="highcharts-text-outline" fill="#FFFFFF" stroke="#FFFFFF" stroke-width="2px" stroke-linejoin="round">$419k<tspan x="22.13332176208496" dy="0">​</tspan></tspan>$419k</text></g><g class="highcharts-label highcharts-data-label highcharts-data-label-color-undefined" data-z-index="1" filter="none" transform="translate(203,207)"><text x="22.13332176208496" data-z-index="1" y="17" text-anchor="middle" style="font-size: 0.8rem; font-weight: normal; fill: rgb(0, 0, 0);"><tspan class="highcharts-text-outline" fill="#FFFFFF" stroke="#FFFFFF" stroke-width="2px" stroke-linejoin="round">$610k<tspan x="22.13332176208496" dy="0">​</tspan></tspan>$610k</text></g><g class="highcharts-label highcharts-data-label highcharts-data-label-color-undefined highcharts-data-label-hidden" data-z-index="1" filter="none" transform="translate(301,143)" opacity="0" style="pointer-events: none;"><text x="22.13332176208496" data-z-index="1" y="17" text-anchor="middle" style="font-size: 0.8rem; font-weight: normal; fill: rgb(0, 0, 0);"><tspan class="highcharts-text-outline" fill="#FFFFFF" stroke="#FFFFFF" stroke-width="2px" stroke-linejoin="round">$990k<tspan x="22.13332176208496" dy="0">​</tspan></tspan>$990k</text></g><g class="highcharts-label highcharts-data-label highcharts-data-label-color-undefined highcharts-data-label-hidden" data-z-index="1" filter="none" transform="translate(395,79)" opacity="0" style="pointer-events: none;"><text x="26.970815658569336" data-z-index="1" y="17" text-anchor="middle" style="font-size: 0.8rem; font-weight: normal; fill: rgb(0, 0, 0);"><tspan class="highcharts-text-outline" fill="#FFFFFF" stroke="#FFFFFF" stroke-width="2px" stroke-linejoin="round" style="">$1,368k<tspan x="26.970815658569336" dy="0">​</tspan></tspan>$1,368k</text></g></g><g class="highcharts-data-labels highcharts-series-1 highcharts-column-series" data-z-index="6" opacity="1" transform="translate(100,50) scale(1 1)" aria-hidden="true"><g class="highcharts-label highcharts-data-label highcharts-data-label-color-undefined highcharts-data-label-hidden" data-z-index="1" filter="none" transform="translate(27,271)" opacity="0" style="pointer-events: none;"><text x="22.13332176208496" data-z-index="1" y="17" text-anchor="middle" style="font-size: 0.8rem; font-weight: normal; fill: rgb(0, 0, 0);"><tspan class="highcharts-text-outline" fill="#FFFFFF" stroke="#FFFFFF" stroke-width="2px" stroke-linejoin="round">$232k<tspan x="22.13332176208496" dy="0">​</tspan></tspan>$232k</text></g><g class="highcharts-label highcharts-data-label highcharts-data-label-color-undefined highcharts-data-label-hidden" data-z-index="1" filter="none" transform="translate(125,237)" opacity="0" style="pointer-events: none;"><text x="22.13332176208496" data-z-index="1" y="17" text-anchor="middle" style="font-size: 0.8rem; font-weight: normal; fill: rgb(0, 0, 0);"><tspan class="highcharts-text-outline" fill="#FFFFFF" stroke="#FFFFFF" stroke-width="2px" stroke-linejoin="round">$432k<tspan x="22.13332176208496" dy="0">​</tspan></tspan>$432k</text></g><g class="highcharts-label highcharts-data-label highcharts-data-label-color-undefined highcharts-data-label-hidden" data-z-index="1" filter="none" transform="translate(223,204)" opacity="0" style="pointer-events: none;"><text x="22.13332176208496" data-z-index="1" y="17" text-anchor="middle" style="font-size: 0.8rem; font-weight: normal; fill: rgb(0, 0, 0);"><tspan class="highcharts-text-outline" fill="#FFFFFF" stroke="#FFFFFF" stroke-width="2px" stroke-linejoin="round">$631k<tspan x="22.13332176208496" dy="0">​</tspan></tspan>$631k</text></g><g class="highcharts-label highcharts-data-label highcharts-data-label-color-undefined" data-z-index="1" filter="none" transform="translate(317,136)"><text x="26.970815658569336" data-z-index="1" y="17" text-anchor="middle" style="font-size: 0.8rem; font-weight: normal; fill: rgb(0, 0, 0);"><tspan class="highcharts-text-outline" fill="#FFFFFF" stroke="#FFFFFF" stroke-width="2px" stroke-linejoin="round">$1,030k<tspan x="26.970815658569336" dy="0">​</tspan></tspan>$1,030k</text></g><g class="highcharts-label highcharts-data-label highcharts-data-label-color-undefined" data-z-index="1" filter="none" transform="translate(415,69)"><text x="26.970815658569336" data-z-index="1" y="17" text-anchor="middle" style="font-size: 0.8rem; font-weight: normal; fill: rgb(0, 0, 0);"><tspan class="highcharts-text-outline" fill="#FFFFFF" stroke="#FFFFFF" stroke-width="2px" stroke-linejoin="round">$1,429k<tspan x="26.970815658569336" dy="0">​</tspan></tspan>$1,429k</text></g></g><g class="highcharts-data-labels highcharts-series-2 highcharts-column-series" data-z-index="6" opacity="1" transform="translate(100,50) scale(1 1)" aria-hidden="true"><g class="highcharts-label highcharts-data-label highcharts-data-label-color-undefined" data-z-index="1" filter="none" transform="translate(46,281)"><text x="22.13332176208496" data-z-index="1" y="17" text-anchor="middle" style="font-size: 0.8rem; font-weight: normal; fill: rgb(0, 0, 0);"><tspan class="highcharts-text-outline" fill="#FFFFFF" stroke="#FFFFFF" stroke-width="2px" stroke-linejoin="round">$174k<tspan x="22.13332176208496" dy="0">​</tspan></tspan>$174k</text></g><g class="highcharts-label highcharts-data-label highcharts-data-label-color-undefined" data-z-index="1" filter="none" transform="translate(144,235)"><text x="22.13332176208496" data-z-index="1" y="17" text-anchor="middle" style="font-size: 0.8rem; font-weight: normal; fill: rgb(0, 0, 0);"><tspan class="highcharts-text-outline" fill="#FFFFFF" stroke="#FFFFFF" stroke-width="2px" stroke-linejoin="round">$444k<tspan x="22.13332176208496" dy="0">​</tspan></tspan>$444k</text></g><g class="highcharts-label highcharts-data-label highcharts-data-label-color-undefined" data-z-index="1" filter="none" transform="translate(242,190)"><text x="22.13332176208496" data-z-index="1" y="17" text-anchor="middle" style="font-size: 0.8rem; font-weight: normal; fill: rgb(0, 0, 0);"><tspan class="highcharts-text-outline" fill="#FFFFFF" stroke="#FFFFFF" stroke-width="2px" stroke-linejoin="round">$714k<tspan x="22.13332176208496" dy="0">​</tspan></tspan>$714k</text></g><g class="highcharts-label highcharts-data-label highcharts-data-label-color-undefined" data-z-index="1" filter="none" transform="translate(336,98)"><text x="26.970815658569336" data-z-index="1" y="17" text-anchor="middle" style="font-size: 0.8rem; font-weight: normal; fill: rgb(0, 0, 0);"><tspan class="highcharts-text-outline" fill="#FFFFFF" stroke="#FFFFFF" stroke-width="2px" stroke-linejoin="round">$1,255k<tspan x="26.970815658569336" dy="0">​</tspan></tspan>$1,255k</text></g><g class="highcharts-label highcharts-data-label highcharts-data-label-color-undefined" data-z-index="1" filter="none" transform="translate(434,7)"><text x="26.970815658569336" data-z-index="1" y="17" text-anchor="middle" style="font-size: 0.8rem; font-weight: normal; fill: rgb(0, 0, 0);"><tspan class="highcharts-text-outline" fill="#FFFFFF" stroke="#FFFFFF" stroke-width="2px" stroke-linejoin="round">$1,794k<tspan x="26.970815658569336" dy="0">​</tspan></tspan>$1,794k</text></g></g><g class="highcharts-legend highcharts-no-tooltip" data-z-index="7" text-align="center" transform="translate(101,455)" aria-hidden="true"><rect fill="none" class="highcharts-legend-box" rx="0" ry="0" stroke="#999999" stroke-width="0" filter="none" x="0" y="0" width="398" height="30"></rect><g data-z-index="1"><g><g class="highcharts-legend-item highcharts-column-series highcharts-color-undefined highcharts-series-0" data-z-index="1" transform="translate(8,3)"><text x="21" text-anchor="start" data-z-index="2" style="cursor: pointer; font-size: 0.8em; text-decoration: none; fill: rgb(51, 51, 51);" y="17">Certificates</text><rect x="2" y="6" rx="6" ry="6" width="12" height="12" fill="#0074CC" class="highcharts-point" data-z-index="3"></rect></g><g class="highcharts-legend-item highcharts-column-series highcharts-color-undefined highcharts-series-1" data-z-index="1" transform="translate(111.5,3)"><text x="21" y="17" text-anchor="start" data-z-index="2" style="cursor: pointer; font-size: 0.8em; text-decoration: none; fill: rgb(51, 51, 51);">Associate's degrees</text><rect x="2" y="6" rx="6" ry="6" width="12" height="12" fill="#266150" class="highcharts-point" data-z-index="3"></rect></g><g class="highcharts-legend-item highcharts-column-series highcharts-color-undefined highcharts-series-2" data-z-index="1" transform="translate(263.2604217529297,3)"><text x="21" y="17" text-anchor="start" data-z-index="2" style="cursor: pointer; font-size: 0.8em; text-decoration: none; fill: rgb(51, 51, 51);">Bachelor's degrees</text><rect x="2" y="6" rx="6" ry="6" width="12" height="12" fill="#DE354C" class="highcharts-point" data-z-index="3"></rect></g></g></g></g><g class="highcharts-axis-labels highcharts-xaxis-labels" data-z-index="7" aria-hidden="true"><text x="149" text-anchor="middle" transform="translate(0,0)" style="cursor: default; font-size: 0.8em; fill: rgb(51, 51, 51);" y="415" opacity="1">10 years</text><text x="247" text-anchor="middle" transform="translate(0,0)" style="cursor: default; font-size: 0.8em; fill: rgb(51, 51, 51);" y="415" opacity="1">15 years</text><text x="345" text-anchor="middle" transform="translate(0,0)" style="cursor: default; font-size: 0.8em; fill: rgb(51, 51, 51);" y="415" opacity="1">20 years</text><text x="443" text-anchor="middle" transform="translate(0,0)" style="cursor: default; font-size: 0.8em; fill: rgb(51, 51, 51);" y="415" opacity="1">30 years</text><text x="541" text-anchor="middle" transform="translate(0,0)" style="cursor: default; font-size: 0.8em; fill: rgb(51, 51, 51);" y="415" opacity="1">40 years</text></g><g class="highcharts-axis-labels highcharts-yaxis-labels" data-z-index="7" aria-hidden="true"><text x="85" text-anchor="end" transform="translate(0,0)" style="cursor: default; font-size: 0.8em; fill: rgb(51, 51, 51);" y="391" opacity="1">$ 0</text><text x="85" text-anchor="end" transform="translate(0,0)" style="cursor: default; font-size: 0.8em; fill: rgb(51, 51, 51);" y="307" opacity="1">$ 500k</text><text x="85" text-anchor="end" transform="translate(0,0)" style="cursor: default; font-size: 0.8em; fill: rgb(51, 51, 51);" y="222" opacity="1">$ 1,000k</text><text x="85" text-anchor="end" transform="translate(0,0)" style="cursor: default; font-size: 0.8em; fill: rgb(51, 51, 51);" y="138" opacity="1">$ 1,500k</text><text x="85" text-anchor="end" transform="translate(0,0)" style="cursor: default; font-size: 0.8em; fill: rgb(51, 51, 51);" y="53" opacity="1">$ 2,000k</text></g><g class="highcharts-control-points" data-z-index="99" clip-path="url(#highcharts-d1tvqbb-154-)" aria-hidden="true"></g><text x="300.0" y="490" text-anchor="middle" style="font-family: -apple-system, BlinkMacSystemFont, 'Segoe UI', Roboto, sans-serif; font-size: 11px; fill: #666;">SOURCE: Georgetown University CEW</text></svg>